<svg width="48" height="44" viewBox="0 0 48 44" fill="none" xmlns="http://www.w3.org/2000/svg">
<path d="M37.4721 14.0762H31.3772V10.5166C31.3772 10.2308 31.1415 10.0003 30.851 10.0003L10.5263 10C10.2347 10 10 10.2305 10 10.5163V28.566C10 32.1718 11.3945 34 14.1446 34H35.1046C35.9856 34 37.1466 33.6007 37.6854 31.7013C38 30.5863 38 29.2993 38 28.5669L37.9997 14.5933C37.9997 14.3065 37.763 14.0757 37.4724 14.0757L37.4721 14.0762ZM14.1444 32.9654C12.0349 32.9654 11.0524 31.5681 11.0524 28.5663L11.0521 11.0355H30.3256V28.5663C30.3256 30.6027 30.7707 32.0709 31.6527 32.9654H14.1444ZM36.9472 28.608C36.9472 29.2953 36.9472 30.4453 36.6704 31.424C36.2792 32.8055 35.5905 32.9655 35.1044 32.9655H34.4683C32.3599 32.9655 31.3773 31.5682 31.3773 28.5663V15.1116H36.9472L36.9472 28.608Z" fill="white"/>
<path d="M27.434 13.1266H13.9431C13.6525 13.1266 13.4168 13.3571 13.4168 13.6442V17.8577C13.4168 18.1445 13.6525 18.3763 13.9431 18.3763H27.434C27.7246 18.3763 27.9603 18.1445 27.9603 17.8577V13.6442C27.9603 13.3574 27.7246 13.1266 27.434 13.1266ZM26.9067 17.3412H14.4695V14.1618H26.9067V17.3412Z" fill="white"/>
<path d="M18.2215 27.0745C18.5131 27.0745 18.7488 26.844 18.7488 26.5569V20.7278C18.7488 20.441 18.5131 20.2092 18.2215 20.2092H13.9431C13.6526 20.2092 13.4169 20.441 13.4169 20.7278V26.5569C13.4169 26.8437 13.6526 27.0745 13.9431 27.0745H18.2215ZM14.4692 21.2441H17.6963V26.0393H14.4692V21.2441Z" fill="white"/>
<path d="M20.1407 20.2089H27.4334V21.2441H20.1407V20.2089Z" fill="white"/>
<path d="M20.1407 23.1238H27.4334V24.159H20.1407V23.1238Z" fill="white"/>
<path d="M20.1407 26.0369H27.4334V27.0721H20.1407V26.0369Z" fill="white"/>
<path d="M13.9431 28.9504H27.434V29.9856H13.9431V28.9504Z" fill="white"/>
</svg>
