<svg width="47" height="48" viewBox="0 0 47 48" fill="none" xmlns="http://www.w3.org/2000/svg">
<path d="M24.7295 23.6254H24.7515L24.7522 23.6247C24.7994 23.6225 24.8465 23.6131 24.8906 23.5965L24.891 23.5963L28.1643 22.3237L28.1647 22.3235C28.2259 22.299 28.2761 22.2607 28.3194 22.2203L28.3194 22.2204L28.3206 22.2191L36.9084 13.633C36.9084 13.633 36.9084 13.633 36.9084 13.6329C36.9999 13.5426 37.05 13.4196 37.05 13.2919V10.4241C37.05 10.1649 36.8452 9.94988 36.5909 9.94988H35.3676C35.2473 9.94988 35.1368 9.99808 35.0502 10.0831L35.05 10.0833L25.6398 19.4159C25.5895 19.4634 25.5483 19.525 25.5251 19.5921C25.525 19.5923 25.525 19.5924 25.5249 19.5925L24.2978 22.9856C24.2978 22.9856 24.2978 22.9856 24.2978 22.9857C24.234 23.1605 24.2749 23.3545 24.4029 23.4872L24.403 23.4873C24.4906 23.5779 24.6099 23.6254 24.7295 23.6254ZM35.5518 10.8985H36.1357V13.0931L27.7539 21.4708L25.5136 22.3394L26.3521 20.0225L35.5518 10.8985Z" fill="white" stroke="white" stroke-width="0.1"/>
<path d="M13.6822 34.2316H13.7429L13.7421 34.2275C13.9374 34.2013 14.0992 34.0484 14.1324 33.842C14.1324 33.8419 14.1325 33.8418 14.1325 33.8418L14.6192 30.9702C14.7806 30.0296 15.3288 29.2194 16.1259 28.7434C16.9228 28.2676 17.8765 28.1843 18.7377 28.5139L18.7556 28.4672L18.7377 28.5139C19.8156 28.9264 21.0176 28.8361 22.0327 28.269L22.0328 28.269C23.0439 27.7017 23.7727 26.7097 24.0334 25.5466L24.0334 25.5465L24.3525 24.1041L24.3526 24.1038C24.4068 23.8507 24.2583 23.5935 24.0086 23.5357C23.7587 23.4735 23.5118 23.6371 23.4571 23.8918C23.4571 23.8918 23.4571 23.8919 23.4571 23.8919L23.138 25.334L23.138 25.3341C22.9405 26.2326 22.3764 26.9966 21.5953 27.435C20.8144 27.8733 19.889 27.9399 19.0558 27.6228C17.9366 27.1931 16.7014 27.305 15.6696 27.9193C14.6378 28.5337 13.9258 29.5858 13.7188 30.8004L13.7188 30.8005L13.232 33.6723C13.232 33.6723 13.232 33.6724 13.232 33.6724C13.1869 33.9304 13.3531 34.1716 13.5987 34.2213C13.6272 34.2317 13.6582 34.2316 13.6788 34.2316L13.6822 34.2316Z" fill="white" stroke="white" stroke-width="0.1"/>
<path d="M12.8641 38.0497H30.0054L30.0055 38.0499H30.049C31.6575 38.0499 32.9632 36.6937 32.9629 35.0303V19.7579C32.9629 19.4987 32.7581 19.2837 32.5038 19.2837C32.2495 19.2837 32.0447 19.4987 32.0447 19.7579L32.0449 35.0303C32.0449 36.1754 31.1489 37.1015 30.049 37.1015H12.8641C11.764 37.1015 10.8682 36.1751 10.8682 35.0303V17.2123C10.8682 16.0672 11.7643 15.1411 12.8641 15.1411L28.4119 15.1408C28.6662 15.1408 28.871 14.9258 28.871 14.6666C28.871 14.4074 28.6662 14.1924 28.4119 14.1924H12.8641C11.2554 14.1924 9.95 15.5486 9.95 17.2121V35.03C9.95 36.6935 11.2554 38.0497 12.8641 38.0497Z" fill="white" stroke="white" stroke-width="0.1"/>
</svg>
