<svg width="48" height="48" viewBox="0 0 48 48" fill="none" xmlns="http://www.w3.org/2000/svg">
<rect x="0.5" y="0.5" width="47" height="47" rx="4.5" fill="#7276FF"/>
<path d="M24 10C16.2807 10 10 16.2808 10 24C10 31.7192 16.2808 38 24 38C31.7192 38 38 31.7192 38 24C38 16.2808 31.7192 10 24 10ZM24 36.7721C16.9589 36.7721 11.2286 31.043 11.2286 24.0007C11.2286 16.9582 16.959 11.2293 24 11.2293C31.041 11.2293 36.7714 16.9597 36.7714 24.0007C36.7714 31.0417 31.041 36.7721 24 36.7721Z" fill="white"/>
<path d="M12.783 22.7457C12.8126 22.7507 12.8434 22.7518 12.8727 22.7518C13.1714 22.7518 13.4341 22.5318 13.4796 22.2271L13.4969 22.1251C13.5572 21.7908 13.3348 21.4716 13.0005 21.4112C12.6711 21.3509 12.347 21.5733 12.288 21.9076L12.2634 22.0478C12.214 22.3856 12.4477 22.6966 12.7831 22.7457L12.783 22.7457Z" fill="white"/>
<path d="M12.7177 24.6637C13.0567 24.6637 13.332 24.3393 13.332 24.0003V23.9756C13.332 23.6367 13.0567 23.3613 12.7177 23.3613C12.3787 23.3613 12.1034 23.6367 12.1034 23.9756V24.0985C12.1034 24.4377 12.3787 24.6637 12.7177 24.6637V24.6637Z" fill="white"/>
<path d="M13.0161 26.6604C13.349 26.599 13.5701 26.2795 13.51 25.9454L13.4878 25.8275C13.4275 25.4932 13.1019 25.2612 12.7764 25.33C12.4435 25.3887 12.2199 25.7082 12.2789 26.0411L12.3011 26.1665C12.3551 26.4627 12.6143 26.6703 12.9045 26.6703C12.9412 26.6703 12.978 26.6667 13.0161 26.6604L13.0161 26.6604Z" fill="white"/>
<path d="M13.165 20.8185C13.23 20.8408 13.2963 20.8504 13.3616 20.8504C13.6183 20.8504 13.8566 20.6894 13.9441 20.4327L13.9784 20.3356C14.0988 20.0175 13.9378 19.6634 13.6197 19.5444C13.3026 19.4275 12.9475 19.585 12.8284 19.9031L12.7793 20.0383C12.6696 20.3602 12.843 20.7091 13.1649 20.8185L13.165 20.8185Z" fill="white"/>
<path d="M13.8691 18.9805C13.9662 19.0359 14.0718 19.0628 14.1763 19.0628C14.3888 19.0628 14.5953 18.9523 14.7094 18.7556L14.7708 18.65C14.9403 18.3563 14.8076 18.0346 14.5141 17.8638C14.2193 17.6954 13.8151 17.8504 13.6442 18.1427C13.4747 18.4362 13.5754 18.8108 13.8691 18.9806L13.8691 18.9805Z" fill="white"/>
<path d="M17.1225 32.1549C16.8644 31.9374 16.4764 31.9706 16.2564 32.2273C16.0365 32.4865 16.0697 32.8734 16.3288 33.0934L16.4333 33.1795C16.5477 33.2717 16.684 33.3172 16.8203 33.3172C16.9985 33.3172 17.1754 33.2398 17.2969 33.0898C17.5119 32.8268 17.4727 32.4412 17.2083 32.2262L17.1225 32.1549Z" fill="white"/>
<path d="M14.0067 27.7403L13.9612 27.6174C13.8433 27.2993 13.509 27.1934 13.1908 27.3138C12.8738 27.4331 12.7336 27.842 12.8529 28.159C12.9426 28.4083 13.1798 28.5633 13.4305 28.5633C13.5004 28.5633 13.5706 28.5509 13.6406 28.5265C13.9587 28.4124 14.1232 28.0598 14.0067 27.7403L14.0067 27.7403Z" fill="white"/>
<path d="M14.7987 29.4013L14.7485 29.3152C14.5801 29.0179 14.2041 28.9134 13.9117 29.0842C13.6169 29.2513 13.5124 29.6248 13.6808 29.921L13.7557 30.0488C13.8725 30.2355 14.0727 30.3386 14.2779 30.3386C14.3898 30.3386 14.5014 30.309 14.6023 30.2465C14.8883 30.0671 14.9769 29.6887 14.7987 29.4013H14.7987Z" fill="white"/>
<path d="M16.6661 16.0416C16.8087 16.0416 16.9511 15.9925 17.0679 15.8916L17.1565 15.8167C17.4157 15.5968 17.4477 15.2098 17.2289 14.9506C17.0103 14.6901 16.6206 14.6608 16.3628 14.8782L16.2646 14.963C16.0077 15.1851 15.9805 15.5721 16.2016 15.8291C16.3233 15.9689 16.4953 16.0416 16.6661 16.0416H16.6661Z" fill="white"/>
<path d="M34.4861 22.0282L34.5084 22.1511C34.5599 22.4385 34.7971 22.5995 35.076 22.5995C35.1202 22.5995 35.1646 22.5959 35.2099 22.5871C35.5442 22.5282 35.7553 22.1486 35.6964 21.8143C35.6361 21.4789 35.3119 21.254 34.985 21.3168C34.6507 21.3744 34.4272 21.6939 34.4861 22.0282L34.4861 22.0282Z" fill="white"/>
<path d="M15.2894 17.4444C15.4663 17.4444 15.6407 17.3681 15.7625 17.222L15.8387 17.1323C16.0587 16.8742 16.0255 16.4862 15.7663 16.2662C15.5083 16.0487 15.1202 16.0794 14.9002 16.3386L14.818 16.4368C14.6005 16.6973 14.6372 17.0854 14.8978 17.3017C15.013 17.3975 15.1506 17.4443 15.2894 17.4443L15.2894 17.4444Z" fill="white"/>
<path d="M33.9877 20.2428L34.0294 20.3558C34.1204 20.604 34.3563 20.7576 34.6056 20.7576C34.6769 20.7576 34.7482 20.7453 34.8181 20.7195C35.1376 20.6016 35.2997 20.2489 35.1817 19.9294L35.1376 19.8101C35.0172 19.492 34.6596 19.3321 34.3464 19.4514C34.0282 19.572 33.8672 19.9258 33.9876 20.2428L33.9877 20.2428Z" fill="white"/>
<path d="M34.668 24.0003V24.0494C34.668 24.3884 34.9433 24.639 35.2823 24.639C35.6213 24.639 35.8966 24.3393 35.8966 24L35.8955 23.8588C35.8856 23.5198 35.6166 23.3306 35.2639 23.3158C34.9247 23.3257 34.6581 23.6613 34.668 24.0003L34.668 24.0003Z" fill="white"/>
<path d="M33.1873 18.5747L33.2413 18.668C33.3557 18.8657 33.5619 18.9751 33.7745 18.9751C33.8789 18.9751 33.9845 18.9493 34.0816 18.8928C34.3753 18.7234 34.476 18.3485 34.3076 18.0537L34.2363 17.9344C34.0594 17.6445 33.6823 17.551 33.3911 17.7292C33.1015 17.9078 33.0104 18.2862 33.1873 18.5747L33.1873 18.5747Z" fill="white"/>
<path d="M27.5504 13.9383L27.6609 13.9775C27.7297 14.0022 27.7986 14.0131 27.8685 14.0131C28.1203 14.0131 28.3564 13.8571 28.4472 13.6064C28.5615 13.2869 28.3956 12.9356 28.0761 12.8202L27.9533 12.7771C27.6362 12.6652 27.2824 12.835 27.1719 13.1556C27.0589 13.4762 27.2284 13.8264 27.5504 13.9382L27.5504 13.9383Z" fill="white"/>
<path d="M21.931 13.5211C21.9678 13.5211 22.0059 13.5187 22.0429 13.5113L22.1608 13.4904C22.4938 13.4314 22.7173 13.1133 22.6583 12.779C22.5994 12.4436 22.2738 12.2187 21.9469 12.2815L21.8216 12.3037C21.4886 12.3641 21.2676 12.6847 21.3276 13.0176C21.3817 13.3135 21.6408 13.5211 21.931 13.5211L21.931 13.5211Z" fill="white"/>
<path d="M24 13.3324H24.0124C24.3513 13.3324 24.6267 13.057 24.6267 12.7181C24.6267 12.3791 24.3513 12.1038 24.0124 12.1038H23.8796C23.5429 12.1098 23.3292 12.3851 23.3317 12.723C23.3342 13.0609 23.6633 13.3324 24 13.3324H24Z" fill="white"/>
<path d="M15.8076 30.8343C15.5851 30.5751 15.2412 30.5896 14.9807 30.8085C14.7216 31.0284 14.729 31.462 14.9489 31.7215C15.0707 31.8641 15.2437 31.9389 15.4181 31.9389C15.5583 31.9389 15.6995 31.8909 15.815 31.7939C16.0741 31.5739 16.1062 31.187 15.8874 30.9278L15.8076 30.8343Z" fill="white"/>
<path d="M35.2366 25.2801C34.9097 25.2286 34.5831 25.4411 34.5216 25.7741L34.4994 25.8994C34.4405 26.2323 34.6738 26.4929 35.0081 26.5518C35.0378 26.5568 35.0685 26.5603 35.0978 26.5603C35.399 26.5603 35.6765 26.2987 35.7305 25.9951C35.7908 25.6611 35.5695 25.3416 35.2366 25.2801L35.2366 25.2801Z" fill="white"/>
<path d="M30.8578 15.8296C30.9733 15.9267 31.1145 15.9747 31.2547 15.9747C31.4291 15.9747 31.6024 15.9009 31.7239 15.7572C31.9439 15.4992 31.9107 15.1111 31.6515 14.8912L31.5435 14.8012C31.2794 14.5911 30.8949 14.6328 30.6798 14.8994C30.4684 15.1649 30.5128 15.5518 30.778 15.763L30.8578 15.8296Z" fill="white"/>
<path d="M29.3898 33.2072L29.3051 33.2577C29.0102 33.4247 28.9057 33.7982 29.0741 34.0944C29.1871 34.2946 29.3947 34.4065 29.6086 34.4065C29.7118 34.4065 29.8162 34.3807 29.9109 34.3267L30.0387 34.2518C30.3261 34.0725 30.4158 33.694 30.2364 33.4066C30.0568 33.1189 29.6761 33.0314 29.3898 33.2072L29.3898 33.2072Z" fill="white"/>
<path d="M18.2648 14.8972C18.3742 14.8972 18.4834 14.8689 18.5829 14.8086L18.674 14.7546C18.9688 14.5876 19.0733 14.2127 18.9049 13.9167C18.7379 13.6205 18.3594 13.5185 18.0682 13.6858L17.9453 13.7571C17.6554 13.9329 17.5619 14.31 17.7377 14.6012C17.8545 14.7913 18.0572 14.8971 18.2648 14.8971V14.8972Z" fill="white"/>
<path d="M30.9168 32.1204L30.8236 32.1991C30.5644 32.4191 30.5789 32.7668 30.7978 33.026C30.9108 33.1587 31.0792 33.2212 31.2525 33.2212C31.4171 33.2212 31.5854 33.1647 31.7108 33.0578C31.9699 32.8378 32.002 32.4509 31.7832 32.1917C31.5643 31.9361 31.1763 31.9043 30.9168 32.1204L30.9168 32.1204Z" fill="white"/>
<path d="M35.2036 27.5977C35.1888 27.556 35.1765 27.5179 35.1532 27.4798C35.1066 27.4011 35.0413 27.3372 34.9615 27.2845C34.9467 27.276 34.9431 27.2574 34.9272 27.2502C34.9113 27.2417 34.8929 27.2428 34.8767 27.2354C34.8595 27.228 34.8471 27.2132 34.8288 27.2072C34.7991 27.1973 34.7698 27.2012 34.7402 27.1948C34.7144 27.1899 34.6886 27.185 34.6628 27.1839C34.5954 27.1803 34.5326 27.1874 34.47 27.2047C34.4651 27.2058 34.4591 27.2072 34.4541 27.2097C34.2723 27.2651 34.1152 27.3939 34.0499 27.5881L34.0535 27.5906L34.0376 27.6213C34.0266 27.6435 34.0266 27.6668 34.0178 27.6888L34.0129 27.6863C34.0068 27.7011 34.0104 27.717 34.0055 27.7318C33.9882 27.7908 33.9758 27.8487 33.9772 27.9076C33.9772 27.9298 33.9822 27.9507 33.9846 27.9715C33.9907 28.0269 34.0019 28.0809 34.0227 28.1325C34.0326 28.1558 34.0461 28.1767 34.0595 28.1989C34.0853 28.2444 34.111 28.2861 34.1481 28.3228C34.1703 28.3461 34.1961 28.362 34.2218 28.3818C34.249 28.4026 34.2698 28.4298 34.3016 28.4457C34.3151 28.4531 34.3299 28.4517 34.3433 28.458C34.3532 28.463 34.3606 28.4715 34.3716 28.4753C34.4012 28.4863 34.4319 28.4852 34.4613 28.4912C34.4955 28.4986 34.5276 28.5085 34.5608 28.5096C34.5693 28.5096 34.5781 28.5145 34.5866 28.5145C34.6014 28.5145 34.6124 28.5035 34.6272 28.5022C34.7193 28.4948 34.8041 28.469 34.8839 28.4224C34.9061 28.41 34.928 28.4026 34.9489 28.3867C35.0213 28.3327 35.0841 28.2663 35.1282 28.1816L35.1836 28.0785C35.2179 28.0146 35.239 27.9471 35.2486 27.8783C35.2522 27.85 35.2352 27.8242 35.2352 27.796C35.2368 27.7293 35.2245 27.663 35.2036 27.5977L35.2036 27.5977Z" fill="white"/>
<path d="M32.2185 30.802L32.1461 30.8868C31.9261 31.1459 31.9593 31.5329 32.2185 31.7528C32.3339 31.8499 32.4752 31.8979 32.6153 31.8979C32.7897 31.8979 32.963 31.823 33.0845 31.6804L33.1707 31.5759C33.3857 31.3129 33.3464 30.9273 33.0821 30.7123C32.8204 30.5012 32.4335 30.5368 32.2185 30.802L32.2185 30.802Z" fill="white"/>
<path d="M34.1126 29.0405C33.8214 28.8697 33.4429 28.9742 33.2759 29.2715L33.218 29.3696C33.0461 29.662 33.1443 30.0394 33.438 30.2113C33.5351 30.2678 33.6431 30.2949 33.7487 30.2949C33.9588 30.2949 34.1639 30.1869 34.2794 29.9913L34.3444 29.8759C34.513 29.5811 34.4088 29.2064 34.1126 29.0406L34.1126 29.0405Z" fill="white"/>
<path d="M32.1756 17.1481C32.2875 17.2794 32.4298 17.3409 32.5785 17.3409C32.7236 17.3409 32.8733 17.2819 33.0025 17.1739C33.2616 16.9539 33.2542 16.5203 33.0343 16.2609C32.8157 16.0017 32.426 15.9721 32.1682 16.1885C31.9091 16.4084 31.877 16.7954 32.0958 17.0546L32.1756 17.1481Z" fill="white"/>
<path d="M22.2195 34.5201L22.1126 34.5017C21.7821 34.4329 21.4601 34.6652 21.4012 34.9992C21.3422 35.3322 21.5657 35.6517 21.8986 35.7106L22.0338 35.7339C22.0646 35.7389 22.0964 35.7413 22.1271 35.7413C22.4257 35.7413 22.6874 35.5228 22.7329 35.2192C22.7861 34.8824 22.5538 34.5703 22.2195 34.5201L22.2195 34.5201Z" fill="white"/>
<path d="M20.8028 34.4731C20.7498 34.2864 20.6196 34.1229 20.4218 34.0554L20.4158 34.0653C20.3851 34.048 20.3519 34.0406 20.3187 34.0297L20.3223 34.0187C20.3025 34.0113 20.2806 34.0138 20.2609 34.0088C20.2301 34.0014 20.2005 33.9965 20.1698 33.994C20.1073 33.988 20.048 33.9904 19.9891 34.0025C19.983 34.0036 19.9767 34.005 19.9707 34.0074C19.7779 34.053 19.6071 34.1808 19.5333 34.3785C19.457 34.5801 19.5037 34.7902 19.6219 34.9511C19.6254 34.9561 19.6279 34.9596 19.6317 34.9646C19.6709 35.015 19.7178 35.0567 19.7719 35.0935C19.7842 35.102 19.7916 35.1157 19.8051 35.1242L19.9046 35.1856C19.966 35.2237 20.0324 35.2495 20.0999 35.2643C20.2694 35.3011 20.4328 35.2396 20.574 35.139C20.5765 35.1379 20.5776 35.1354 20.5801 35.134C20.6404 35.0899 20.709 35.0567 20.752 34.9879C20.8209 34.876 20.8392 34.752 20.8318 34.6303C20.8318 34.608 20.8318 34.5861 20.8294 34.5653C20.8225 34.5332 20.8137 34.5038 20.8028 34.4731L20.8028 34.4731Z" fill="white"/>
<path d="M24 34.6683H23.9633C23.6243 34.6683 23.3489 34.9437 23.3489 35.2826C23.3489 35.6216 23.6243 35.897 23.9633 35.897H24.0872C24.4262 35.897 24.6585 35.6216 24.6585 35.2826C24.6585 34.9434 24.339 34.6683 24 34.6683H24Z" fill="white"/>
<path d="M18.7401 33.2838L18.6419 33.2259C18.352 33.0564 17.9736 33.151 17.8002 33.4459C17.6283 33.7382 17.7265 34.1156 18.0202 34.2875L18.1356 34.3525C18.2303 34.4079 18.3347 34.4323 18.4379 34.4323C18.6518 34.4323 18.8594 34.3204 18.9724 34.1202C19.1394 33.8243 19.0349 33.4497 18.7401 33.2838L18.7401 33.2838Z" fill="white"/>
<path d="M27.7435 33.9936L27.6058 34.044C27.2877 34.1633 27.1747 34.4998 27.2937 34.8169C27.3847 35.0601 27.6401 35.2014 27.8981 35.2014C27.9768 35.2014 28.0567 35.1879 28.1315 35.1608C28.4535 35.0527 28.6265 34.705 28.5198 34.383C28.4129 34.0599 28.0665 33.888 27.7434 33.9936L27.7435 33.9936Z" fill="white"/>
<path d="M29.2388 14.7041L29.337 14.7606C29.4341 14.8185 29.5421 14.8454 29.6477 14.8454C29.8578 14.8454 30.0629 14.7373 30.1784 14.5418C30.3504 14.2494 30.2522 13.8735 29.9585 13.7015L29.843 13.6351C29.5518 13.4706 29.1747 13.5712 29.0063 13.866C28.8382 14.1611 28.9426 14.5371 29.2388 14.7042V14.7041Z" fill="white"/>
<path d="M25.9328 34.4927L25.8149 34.5149C25.482 34.5739 25.2585 34.8934 25.3174 35.2264C25.3704 35.5236 25.6295 35.7337 25.9208 35.7337C25.9564 35.7337 25.9932 35.7312 26.0288 35.7238L26.1542 35.7016C26.4871 35.6402 26.7081 35.3207 26.6481 34.9866C26.5864 34.6526 26.2622 34.4362 25.9328 34.4927L25.9328 34.4927Z" fill="white"/>
<path d="M27.3699 28.1214C27.4042 27.9495 27.3576 27.7847 27.2298 27.6275C27.1412 27.5096 27.0247 27.4408 26.8834 27.421C26.7408 27.4013 26.601 27.426 26.4633 27.4948C26.1879 27.7013 25.8882 27.8584 25.564 27.9665C25.2396 28.0746 24.8957 28.1286 24.532 28.1286C23.8439 28.1286 23.2148 27.964 22.6449 27.6347C22.0748 27.3053 21.6215 26.8287 21.2885 26.2045C21.2172 26.0717 21.184 25.9121 21.1289 25.7695L23.6328 25.7854C23.7998 25.7854 23.9424 25.7314 24.0603 25.6233C24.1783 25.5153 24.2372 25.3826 24.2372 25.2251C24.2372 25.0581 24.1783 24.9204 24.0603 24.8124C23.9424 24.7043 23.7998 24.6503 23.6328 24.6503L20.855 24.633C20.8303 24.4191 20.7875 24.2178 20.7875 23.9869C20.7875 23.8813 20.8133 23.7917 20.8193 23.6896L23.6328 23.7069C23.7998 23.7069 23.9424 23.654 24.0603 23.5448C24.1783 23.4368 24.2372 23.304 24.2372 23.1466C24.2372 22.9796 24.1783 22.8419 24.0603 22.7339C23.9424 22.6258 23.7998 22.5718 23.6328 22.5718L21.0134 22.5559C21.0883 22.3102 21.1585 22.062 21.2751 21.8434C21.5995 21.2291 22.0465 20.7476 22.6167 20.3987C23.1868 20.0499 23.8256 19.8754 24.5334 19.8754C24.897 19.8754 25.2434 19.9319 25.5728 20.0449C25.9022 20.1579 26.2044 20.3129 26.4795 20.5092C26.6171 20.5781 26.7548 20.6074 26.8922 20.5978C27.0299 20.5879 27.1429 20.5191 27.2312 20.3913C27.3491 20.2438 27.3932 20.0817 27.3639 19.9048C27.3343 19.7279 27.2361 19.5952 27.0691 19.5066C26.7153 19.251 26.3196 19.0544 25.8822 18.917C25.4447 18.7793 24.995 18.7104 24.5331 18.7104C23.8352 18.7104 23.1866 18.8432 22.5871 19.1087C21.9876 19.3741 21.464 19.7427 21.017 20.2144C20.5697 20.6861 20.2233 21.2415 19.9776 21.8804C19.8964 22.093 19.8487 22.3228 19.7944 22.5488L18.9171 22.5438C18.7501 22.5438 18.6075 22.5979 18.4896 22.7059C18.3716 22.814 18.3127 22.9516 18.3127 23.1187C18.3127 23.2758 18.3716 23.4085 18.4896 23.5169C18.6075 23.6249 18.7501 23.6789 18.9171 23.6789L19.6359 23.6839C19.6309 23.787 19.6101 23.883 19.6101 23.9886C19.6101 24.2121 19.6444 24.415 19.6641 24.6276L18.9171 24.6226C18.75 24.6226 18.6074 24.6767 18.4895 24.7847C18.3716 24.8928 18.3126 25.0304 18.3126 25.1974C18.3126 25.3546 18.3716 25.4873 18.4895 25.5957C18.6074 25.7037 18.75 25.7577 18.9171 25.7577L19.8802 25.7638C19.9233 25.905 19.9477 26.0586 20.0006 26.1927C20.2611 26.8462 20.6174 27.404 21.0697 27.8661C21.5219 28.328 22.0452 28.682 22.6397 28.9277C23.2342 29.1735 23.8659 29.2963 24.5342 29.2963C24.8487 29.2963 25.1584 29.2621 25.463 29.1932C25.7677 29.1244 26.06 29.0287 26.3403 28.9058C26.6203 28.7829 26.8685 28.6477 27.0849 28.5005C27.2395 28.4187 27.3353 28.2934 27.3698 28.1215L27.3699 28.1214Z" fill="white"/>
<path d="M25.6562 13.4517L25.7667 13.491C25.8356 13.5156 25.9044 13.5266 25.9743 13.5266C26.0369 13.5266 26.0898 13.491 26.1488 13.4726C26.166 13.4677 26.1819 13.4641 26.1979 13.4567C26.279 13.4235 26.3429 13.378 26.4044 13.313C26.4436 13.2724 26.4806 13.2293 26.5075 13.1778C26.5185 13.1556 26.5431 13.1446 26.5516 13.1199C26.564 13.0856 26.5601 13.0511 26.5664 13.0168C26.5675 13.0094 26.5725 13.0044 26.5739 12.997C26.5749 12.9885 26.5714 12.9798 26.5728 12.9713C26.5777 12.9172 26.5777 12.8643 26.5692 12.8127C26.5632 12.7672 26.5519 12.7255 26.536 12.6839C26.5286 12.6655 26.5212 12.6482 26.5127 12.6309C26.4304 12.4576 26.2779 12.3213 26.0753 12.2856C26.0728 12.2856 25.9499 12.2634 25.9475 12.2634L25.9464 12.2758C25.6625 12.2327 25.3737 12.3863 25.2767 12.669C25.1661 12.9896 25.3343 13.3398 25.6562 13.4517L25.6562 13.4517Z" fill="white"/>
<path d="M20.1337 14.0189L20.2467 13.9871C20.2626 13.9822 20.2749 13.9712 20.2908 13.9663L20.3007 13.991L20.2947 13.9652C20.3144 13.9575 20.3328 13.9479 20.3512 13.938L20.3621 13.9687C20.6816 13.8533 20.8475 13.502 20.7332 13.1825C20.6375 12.9135 20.3695 12.7648 20.0956 12.7906C20.0366 12.7895 19.9776 12.787 19.9187 12.8029L19.7933 12.8386C19.4703 12.9296 19.2786 13.2722 19.3732 13.598C19.4667 13.9246 19.8071 14.1135 20.1337 14.0189L20.1337 14.0189Z" fill="white"/>
<rect x="0.5" y="0.5" width="47" height="47" rx="4.5" stroke="#7276FF"/>
</svg>
