<svg width="29" height="29" viewBox="0 0 29 29" fill="none" xmlns="http://www.w3.org/2000/svg">
<path d="M7.77818 6.36394C7.38766 5.97341 6.75449 5.97341 6.36397 6.36394C5.97344 6.75446 5.97344 7.38763 6.36397 7.77815L7.77818 6.36394ZM20.5061 21.9203C20.8966 22.3108 21.5298 22.3108 21.9203 21.9203C22.3108 21.5298 22.3108 20.8966 21.9203 20.5061L20.5061 21.9203ZM6.36397 7.77815L20.5061 21.9203L21.9203 20.5061L7.77818 6.36394L6.36397 7.77815Z" fill="white"/>
<path d="M6.36397 20.506C5.97344 20.8966 5.97344 21.5297 6.36397 21.9202C6.75449 22.3108 7.38766 22.3108 7.77818 21.9202L6.36397 20.506ZM21.9203 7.77811C22.3108 7.38758 22.3108 6.75442 21.9203 6.36389C21.5298 5.97337 20.8966 5.97337 20.5061 6.36389L21.9203 7.77811ZM7.77818 21.9202L21.9203 7.77811L20.5061 6.36389L6.36397 20.506L7.77818 21.9202Z" fill="white"/>
</svg>
