<svg width="2644" height="791" viewBox="0 0 2644 791" fill="none" xmlns="http://www.w3.org/2000/svg">
<path d="M405.494 557.944C362.935 560.512 321.071 546.267 288.913 518.282C256.753 490.292 236.868 450.798 233.535 408.293C230.201 365.786 243.69 323.674 271.099 291.015C275.683 285.844 275.207 277.93 270.036 273.346C264.865 268.763 256.954 269.241 252.37 274.413C221.454 310.968 205.675 357.961 208.266 405.765C210.856 453.574 231.619 498.585 266.302 531.583C300.985 564.582 346.98 583.084 394.855 583.293C442.734 583.504 488.882 565.409 523.853 532.711L525.071 531.337C529.238 526.23 528.765 518.779 523.992 514.241C519.217 509.7 511.751 509.607 506.859 514.024L506.452 514.483L506.455 514.48C478.847 540.219 443.165 555.575 405.497 557.937L405.494 557.944Z" fill="#FFA51A"/>
<path d="M220.644 240.559C180.582 285.931 159.671 345.066 162.307 405.532C164.94 466.002 190.914 523.096 234.764 564.816C278.617 606.533 336.936 629.629 397.457 629.238C457.982 628.856 516.002 605.019 559.318 562.753C564.262 557.9 564.337 549.96 559.487 545.013C554.637 540.067 546.697 539.992 541.75 544.841C509.509 576.449 467.891 596.759 423.142 602.722C378.386 608.688 332.905 599.995 293.506 577.938C254.111 555.879 222.923 521.651 204.619 480.38C186.308 439.11 181.867 393.016 191.96 349.006C202.053 305.001 226.132 265.449 260.596 236.272C295.057 207.101 338.042 189.884 383.111 187.2C388.967 185.704 392.937 180.266 392.573 174.233C392.21 168.201 387.614 163.276 381.623 162.496C350.974 164.284 320.981 172.097 293.358 185.493C265.735 198.889 241.022 217.599 220.64 240.556L220.644 240.559Z" fill="#FFA51A"/>
<path d="M412.502 675.351C481.084 671.338 545.782 642.169 594.206 593.435C596.562 591.102 597.889 587.92 597.886 584.602C597.883 581.284 596.557 578.105 594.194 575.77C591.837 573.394 588.627 572.052 585.278 572.043C581.927 572.037 578.711 573.363 576.341 575.73C529.627 622.629 466.517 649.535 400.338 650.766C334.159 652.003 270.087 627.474 221.656 582.356C173.227 537.235 144.223 475.058 140.771 408.957C137.322 342.853 159.694 278.001 203.174 228.078C246.648 178.167 307.818 147.102 373.766 141.444C439.717 135.788 505.284 155.979 556.628 197.765C562.036 201.556 569.457 200.523 573.631 195.401C577.8 190.28 577.308 182.803 572.5 178.275C525.184 139.935 466.66 118.067 405.793 115.985C344.929 113.904 285.047 131.722 235.228 166.737C185.402 201.752 148.35 252.062 129.697 310.027C111.039 367.999 111.788 430.47 131.833 487.98C151.876 545.487 190.126 594.891 240.777 628.701C291.428 662.512 351.718 678.887 412.516 675.349L412.502 675.351Z" fill="#FFA51A"/>
<path d="M704.619 376.848C711.333 360.903 721.823 348.734 736.089 340.342C750.356 331.67 767.7 327.334 788.12 327.334V347.895L783.085 347.475C758.748 347.475 739.726 355.168 726.019 370.554C712.312 385.659 705.458 406.78 705.458 433.914V548.046H684.478V329.013H704.619V376.848ZM1031.58 329.013L919.122 577.838C910.73 597.14 900.939 610.847 889.75 618.959C878.84 627.072 865.832 631.128 850.727 631.128C840.656 631.128 831.145 629.449 822.193 626.093C813.522 622.736 806.109 617.84 799.954 611.406L810.445 595.462C821.634 606.931 835.201 612.665 851.146 612.665C861.776 612.665 870.868 609.728 878.42 603.854C885.973 597.979 892.967 587.909 899.401 573.642L911.15 547.207L812.543 329.013H834.782L922.479 524.968L1010.18 329.013H1031.58ZM1187.38 327.334C1207.8 327.334 1226.27 332.09 1242.77 341.601C1259.28 351.112 1272.14 364.26 1281.37 381.044C1290.89 397.828 1295.64 416.99 1295.64 438.53C1295.64 460.069 1290.89 479.371 1281.37 496.435C1272.14 513.219 1259.28 526.367 1242.77 535.878C1226.27 545.109 1207.8 549.725 1187.38 549.725C1168.08 549.725 1150.6 545.249 1134.93 536.297C1119.27 527.066 1107.1 514.338 1098.43 498.113V629.449H1077.45V329.013H1097.59V380.624C1106.26 363.84 1118.43 350.832 1134.09 341.601C1150.04 332.09 1167.8 327.334 1187.38 327.334ZM1186.12 530.842C1202.91 530.842 1218.01 526.926 1231.44 519.094C1244.87 511.261 1255.36 500.351 1262.91 486.364C1270.74 472.378 1274.66 456.433 1274.66 438.53C1274.66 420.626 1270.74 404.682 1262.91 390.695C1255.36 376.708 1244.87 365.798 1231.44 357.966C1218.01 350.133 1202.91 346.217 1186.12 346.217C1169.34 346.217 1154.23 350.133 1140.81 357.966C1127.66 365.798 1117.17 376.708 1109.34 390.695C1101.78 404.682 1098.01 420.626 1098.01 438.53C1098.01 456.433 1101.78 472.378 1109.34 486.364C1117.17 500.351 1127.66 511.261 1140.81 519.094C1154.23 526.926 1169.34 530.842 1186.12 530.842ZM1469.28 534.199C1463.96 539.235 1457.25 543.151 1449.13 545.948C1441.3 548.466 1433.05 549.725 1424.38 549.725C1405.36 549.725 1390.67 544.55 1380.32 534.199C1369.97 523.569 1364.79 508.883 1364.79 490.141V347.056H1324.51V329.013H1364.79V281.178H1385.77V329.013H1455.43V347.056H1385.77V488.043C1385.77 502.309 1389.13 513.219 1395.84 520.772C1402.84 528.045 1413.05 531.682 1426.48 531.682C1440.18 531.682 1451.51 527.626 1460.46 519.513L1469.28 534.199ZM1605.6 549.725C1584.9 549.725 1566.15 544.969 1549.37 535.458C1532.87 525.947 1519.86 512.8 1510.35 496.015C1500.84 478.951 1496.08 459.79 1496.08 438.53C1496.08 417.27 1500.84 398.248 1510.35 381.463C1519.86 364.4 1532.87 351.112 1549.37 341.601C1566.15 332.09 1584.9 327.334 1605.6 327.334C1626.3 327.334 1644.9 332.09 1661.41 341.601C1678.19 351.112 1691.34 364.4 1700.85 381.463C1710.36 398.248 1715.11 417.27 1715.11 438.53C1715.11 459.79 1710.36 478.951 1700.85 496.015C1691.34 512.8 1678.19 525.947 1661.41 535.458C1644.9 544.969 1626.3 549.725 1605.6 549.725ZM1605.6 530.842C1622.38 530.842 1637.35 526.926 1650.5 519.094C1663.92 511.261 1674.41 500.351 1681.97 486.364C1689.8 472.378 1693.71 456.433 1693.71 438.53C1693.71 420.626 1689.8 404.682 1681.97 390.695C1674.41 376.708 1663.92 365.798 1650.5 357.966C1637.35 350.133 1622.38 346.217 1605.6 346.217C1588.81 346.217 1573.71 350.133 1560.28 357.966C1547.13 365.798 1536.64 376.708 1528.81 390.695C1521.26 404.682 1517.48 420.626 1517.48 438.53C1517.48 456.433 1521.26 472.378 1528.81 486.364C1536.64 500.351 1547.13 511.261 1560.28 519.094C1573.71 526.926 1588.81 530.842 1605.6 530.842ZM1894.69 254.323H1916.09V548.046H1894.69V254.323ZM2118.72 327.334C2146.14 327.334 2167.81 335.307 2183.76 351.252C2199.7 367.197 2207.68 390.135 2207.68 420.067V548.046H2186.7V421.745C2186.7 397.129 2180.4 378.386 2167.81 365.518C2155.51 352.651 2138.16 346.217 2115.78 346.217C2090.05 346.217 2069.77 353.909 2054.94 369.295C2040.12 384.68 2032.7 405.381 2032.7 431.396V548.046H2011.72V329.013H2031.86V376.428C2039.42 361.043 2050.61 349.014 2065.43 340.342C2080.54 331.67 2098.3 327.334 2118.72 327.334ZM2359.93 253.065C2332.52 253.065 2318.81 267.751 2318.81 297.123V329.013H2388.88V347.056H2319.23V548.046H2298.25V347.056H2257.97V329.013H2298.25V295.445C2298.25 276.982 2303.56 262.296 2314.19 251.386C2324.82 240.476 2339.79 235.022 2359.09 235.022C2367.48 235.022 2375.46 236.28 2383.01 238.798C2390.84 241.036 2397.28 244.533 2402.31 249.288L2393.92 265.233C2384.97 257.121 2373.64 253.065 2359.93 253.065ZM2513.65 549.725C2492.95 549.725 2474.2 544.969 2457.42 535.458C2440.92 525.947 2427.91 512.8 2418.4 496.015C2408.89 478.951 2404.13 459.79 2404.13 438.53C2404.13 417.27 2408.89 398.248 2418.4 381.463C2427.91 364.4 2440.92 351.112 2457.42 341.601C2474.2 332.09 2492.95 327.334 2513.65 327.334C2534.35 327.334 2552.95 332.09 2569.45 341.601C2586.24 351.112 2599.39 364.4 2608.9 381.463C2618.41 398.248 2623.16 417.27 2623.16 438.53C2623.16 459.79 2618.41 478.951 2608.9 496.015C2599.39 512.8 2586.24 525.947 2569.45 535.458C2552.95 544.969 2534.35 549.725 2513.65 549.725ZM2513.65 530.842C2530.43 530.842 2545.4 526.926 2558.54 519.094C2571.97 511.261 2582.46 500.351 2590.02 486.364C2597.85 472.378 2601.76 456.433 2601.76 438.53C2601.76 420.626 2597.85 404.682 2590.02 390.695C2582.46 376.708 2571.97 365.798 2558.54 357.966C2545.4 350.133 2530.43 346.217 2513.65 346.217C2496.86 346.217 2481.76 350.133 2468.33 357.966C2455.18 365.798 2444.69 376.708 2436.86 390.695C2429.31 404.682 2425.53 420.626 2425.53 438.53C2425.53 456.433 2429.31 472.378 2436.86 486.364C2444.69 500.351 2455.18 511.261 2468.33 519.094C2481.76 526.926 2496.86 530.842 2513.65 530.842Z" fill="#FFA51A"/>
</svg>
