<svg width="116" height="29" viewBox="0 0 116 29" fill="none" xmlns="http://www.w3.org/2000/svg">
<path d="M7.02201 22.4451C5.2659 22.4451 3.79729 21.8546 2.61618 20.6735C1.45062 19.4924 0.867839 18.0393 0.867839 16.3143C0.867839 14.5737 1.45062 13.1206 2.61618 11.9551C3.79729 10.774 5.2659 10.1834 7.02201 10.1834C8.15649 10.1834 9.18996 10.4554 10.1224 10.9993C11.0549 11.5432 11.7542 12.2737 12.2204 13.1906L10.0525 14.4494C9.78828 13.8899 9.38422 13.4548 8.84029 13.1439C8.3119 12.8176 7.69804 12.6544 6.9987 12.6544C5.973 12.6544 5.11049 13.0041 4.41115 13.7034C3.72735 14.4028 3.38545 15.273 3.38545 16.3143C3.38545 17.3555 3.72735 18.2258 4.41115 18.9251C5.11049 19.6245 5.973 19.9741 6.9987 19.9741C7.6825 19.9741 8.29636 19.811 8.84029 19.4846C9.39976 19.1582 9.81936 18.7231 10.0991 18.1792L12.267 19.4147C11.7697 20.3471 11.0549 21.0853 10.1224 21.6292C9.18996 22.1732 8.15649 22.4451 7.02201 22.4451ZM16.6727 12.4446C17.3099 10.9993 18.5065 10.2767 20.2626 10.2767V13.0041C19.2991 12.9419 18.4599 13.175 17.745 13.7034C17.0301 14.2163 16.6727 15.071 16.6727 16.2677V22.1421H14.1551V10.4865H16.6727V12.4446ZM30.2063 10.4865H32.8871L28.4114 22.5151C27.2924 25.53 25.3964 26.9598 22.7234 26.8043V24.4499C23.516 24.4965 24.1532 24.3256 24.6349 23.9371C25.1167 23.5641 25.513 22.9735 25.8238 22.1654L25.9404 21.9323L20.9984 10.4865H23.7491L27.2225 18.9484L30.2063 10.4865ZM41.0585 10.1834C42.6592 10.1834 44.0268 10.7817 45.1612 11.9784C46.2957 13.1595 46.863 14.6048 46.863 16.3143C46.863 18.0393 46.2957 19.4924 45.1612 20.6735C44.0268 21.8546 42.6592 22.4451 41.0585 22.4451C39.2868 22.4451 37.927 21.7924 36.979 20.487V26.8043H34.4614V10.4865H36.979V12.1649C37.927 10.8439 39.2868 10.1834 41.0585 10.1834ZM38.028 18.9951C38.7273 19.6944 39.6054 20.0441 40.6622 20.0441C41.7189 20.0441 42.597 19.6944 43.2963 18.9951C43.9957 18.2802 44.3453 17.3866 44.3453 16.3143C44.3453 15.242 43.9957 14.3561 43.2963 13.6568C42.597 12.9419 41.7189 12.5845 40.6622 12.5845C39.6054 12.5845 38.7273 12.9419 38.028 13.6568C37.3287 14.3561 36.979 15.242 36.979 16.3143C36.979 17.3866 37.3287 18.2802 38.028 18.9951ZM55.4209 12.9108H52.5303V18.5055C52.5303 18.9873 52.6391 19.337 52.8567 19.5545C53.0743 19.7566 53.3928 19.8731 53.8124 19.9042C54.2476 19.9197 54.7837 19.912 55.4209 19.8809V22.1421C53.4939 22.3752 52.1107 22.212 51.2715 21.6526C50.4323 21.0775 50.0127 20.0285 50.0127 18.5055V12.9108H47.8681V10.4865H50.0127V7.96884L52.5303 7.22288V10.4865H55.4209V12.9108ZM74.128 8.27189C73.8172 8.58271 73.4442 8.73812 73.0091 8.73812C72.5739 8.73812 72.1932 8.58271 71.8668 8.27189C71.556 7.94553 71.4006 7.56478 71.4006 7.12964C71.4006 6.69449 71.556 6.32151 71.8668 6.0107C72.1776 5.68434 72.5584 5.52116 73.0091 5.52116C73.4598 5.52116 73.8405 5.68434 74.1513 6.0107C74.4621 6.32151 74.6176 6.69449 74.6176 7.12964C74.6176 7.56478 74.4544 7.94553 74.128 8.27189ZM71.7503 22.1421V10.4865H74.2679V22.1421H71.7503ZM83.3219 10.1834C84.6585 10.1834 85.7385 10.6108 86.5622 11.4655C87.3859 12.3203 87.7977 13.4936 87.7977 14.9855V22.1421H85.2801V15.242C85.2801 14.3717 85.047 13.7034 84.5808 13.2372C84.1145 12.771 83.4774 12.5379 82.6692 12.5379C81.7834 12.5379 81.0685 12.8176 80.5246 13.3771C79.9807 13.921 79.7087 14.7602 79.7087 15.8947V22.1421H77.1911V10.4865H79.7087V11.9784C80.4702 10.7817 81.6746 10.1834 83.3219 10.1834ZM96.6161 7.94553C94.7823 7.77458 93.8654 8.54386 93.8654 10.2533V10.4865H96.6161V12.9108H93.8654V22.1421H91.3478V12.9108H89.5761V10.4865H91.3478V10.2533C91.3478 8.65264 91.7907 7.44046 92.6765 6.61679C93.5779 5.77759 94.8911 5.41238 96.6161 5.52116V7.94553ZM103.044 22.4451C101.335 22.4451 99.8818 21.8546 98.6852 20.6735C97.4885 19.4924 96.8902 18.0393 96.8902 16.3143C96.8902 14.5892 97.4885 13.1362 98.6852 11.9551C99.8818 10.774 101.335 10.1834 103.044 10.1834C104.769 10.1834 106.222 10.774 107.404 11.9551C108.6 13.1362 109.199 14.5892 109.199 16.3143C109.199 18.0393 108.6 19.4924 107.404 20.6735C106.222 21.8546 104.769 22.4451 103.044 22.4451ZM100.457 18.9484C101.156 19.6478 102.019 19.9975 103.044 19.9975C104.07 19.9975 104.933 19.6478 105.632 18.9484C106.331 18.2491 106.681 17.3711 106.681 16.3143C106.681 15.2575 106.331 14.3794 105.632 13.6801C104.933 12.9808 104.07 12.6311 103.044 12.6311C102.019 12.6311 101.156 12.9808 100.457 13.6801C99.7575 14.3794 99.4078 15.2575 99.4078 16.3143C99.4078 17.3711 99.7575 18.2491 100.457 18.9484Z" fill="#7276FF"/>
<path d="M114.226 21.909C113.884 22.2509 113.472 22.4218 112.99 22.4218C112.508 22.4218 112.097 22.2509 111.755 21.909C111.413 21.5671 111.242 21.1552 111.242 20.6735C111.242 20.1917 111.405 19.7799 111.731 19.438C112.073 19.0961 112.493 18.9251 112.99 18.9251C113.472 18.9251 113.884 19.0961 114.226 19.438C114.568 19.7799 114.739 20.1917 114.739 20.6735C114.739 21.1552 114.568 21.5671 114.226 21.909Z" fill="#FFE872"/>
<path d="M63 10.1421C59.6917 10.1421 57 12.8339 57 16.1421C57 19.4503 59.6918 22.1421 63 22.1421C66.3082 22.1421 69 19.4503 69 16.1421C69 12.8339 66.3082 10.1421 63 10.1421ZM63 21.6158C59.9824 21.6158 57.5266 19.1605 57.5266 16.1424C57.5266 13.1242 59.9824 10.6689 63 10.6689C66.0176 10.6689 68.4734 13.1248 68.4734 16.1424C68.4734 19.16 66.0176 21.6158 63 21.6158Z" fill="#FFE872"/>
<path d="M64.994 18.4004C65.0129 18.3162 64.9872 18.2355 64.9167 18.1585C64.8679 18.1008 64.8036 18.0671 64.7257 18.0574C64.6471 18.0477 64.57 18.0598 64.4941 18.0935C64.3423 18.1947 64.177 18.2716 63.9982 18.3246C63.8194 18.3775 63.6297 18.4039 63.4292 18.4039C63.0498 18.4039 62.7029 18.3233 62.3887 18.162C62.0744 18.0007 61.8244 17.7673 61.6408 17.4616C61.6015 17.3966 61.5832 17.3184 61.5528 17.2486L62.9334 17.2564C63.0255 17.2564 63.1041 17.2299 63.1692 17.177C63.2342 17.1241 63.2667 17.0591 63.2667 16.982C63.2667 16.9002 63.2342 16.8327 63.1692 16.7798C63.1041 16.7269 63.0255 16.7004 62.9334 16.7004L61.4018 16.692C61.3882 16.5872 61.3646 16.4886 61.3646 16.3755C61.3646 16.3238 61.3788 16.2799 61.3821 16.2299L62.9334 16.2384C63.0255 16.2384 63.1041 16.2125 63.1692 16.159C63.2342 16.1061 63.2667 16.0411 63.2667 15.964C63.2667 15.8822 63.2342 15.8148 63.1692 15.7619C63.1041 15.7089 63.0255 15.6825 62.9334 15.6825L61.4892 15.6747C61.5305 15.5543 61.5692 15.4328 61.6334 15.3258C61.8123 15.0249 62.0588 14.7891 62.3731 14.6182C62.6875 14.4474 63.0397 14.3619 63.43 14.3619C63.6305 14.3619 63.8215 14.3896 64.0031 14.4449C64.1847 14.5003 64.3513 14.5762 64.503 14.6723C64.5789 14.7061 64.6548 14.7204 64.7306 14.7157C64.8065 14.7109 64.8688 14.6772 64.9175 14.6146C64.9825 14.5423 65.0068 14.4629 64.9907 14.3763C64.9743 14.2897 64.9202 14.2247 64.8281 14.1813C64.633 14.0561 64.4148 13.9598 64.1737 13.8925C63.9325 13.8251 63.6845 13.7914 63.4298 13.7914C63.045 13.7914 62.6874 13.8564 62.3568 13.9864C62.0263 14.1164 61.7376 14.2969 61.4911 14.528C61.2445 14.759 61.0535 15.031 60.918 15.3439C60.8733 15.448 60.847 15.5605 60.817 15.6712L60.3333 15.6688C60.2412 15.6688 60.1626 15.6952 60.0976 15.7482C60.0325 15.8011 60 15.8685 60 15.9503C60 16.0273 60.0325 16.0923 60.0976 16.1453C60.1626 16.1983 60.2412 16.2247 60.3333 16.2247L60.7296 16.2271C60.7269 16.2776 60.7154 16.3246 60.7154 16.3763C60.7154 16.4858 60.7343 16.5852 60.7452 16.6893L60.3333 16.6869C60.2412 16.6869 60.1625 16.7133 60.0975 16.7663C60.0325 16.8192 60 16.8866 60 16.9684C60 17.0454 60.0325 17.1104 60.0975 17.1634C60.1626 17.2163 60.2412 17.2428 60.3333 17.2428L60.8643 17.2458C60.8881 17.3149 60.9015 17.3901 60.9307 17.4558C61.0744 17.7759 61.2708 18.0491 61.5202 18.2754C61.7695 18.5016 62.058 18.675 62.3858 18.7953C62.7137 18.9157 63.0619 18.9758 63.4304 18.9758C63.6039 18.9758 63.7746 18.9591 63.9426 18.9253C64.1106 18.8916 64.2717 18.8447 64.4263 18.7846C64.5807 18.7244 64.7175 18.6582 64.8368 18.5861C64.9221 18.546 64.9749 18.4847 64.9939 18.4004L64.994 18.4004Z" fill="#FFE872"/>
<circle cx="63" cy="16.1421" r="5.27152" stroke="#FFE872" stroke-width="1.45695"/>
</svg>
