<svg width="18" height="17" viewBox="0 0 18 17" fill="none" xmlns="http://www.w3.org/2000/svg">
<path d="M1.51948 9.27338H8.22662V15.9805C8.22662 16.3543 8.52236 16.65 8.8961 16.65C9.26985 16.65 9.56558 16.3543 9.56558 15.9805V9.27338H16.4805C16.8543 9.27338 17.15 8.97764 17.15 8.6039C17.15 8.23015 16.8543 7.93441 16.4805 7.93441H9.56558V1.01948C9.56558 0.645736 9.26985 0.35 8.8961 0.35C8.52236 0.35 8.22662 0.645736 8.22662 1.01948V7.93441H1.51948C1.14574 7.93441 0.85 8.23015 0.85 8.6039C0.85 8.97764 1.14574 9.27338 1.51948 9.27338Z" fill="white" stroke="white" stroke-width="0.3"/>
</svg>
