<svg width="18" height="18" viewBox="0 0 18 18" fill="none" xmlns="http://www.w3.org/2000/svg">
<g clip-path="url(#clip0_164_5214)">
<rect width="18" height="18" rx="9" fill="white"/>
<path d="M9 18C13.9875 18 18 13.9875 18 9C18 4.01247 13.9875 0 9 0C4.01247 0 0 4.01247 0 9C0 13.9875 4.01247 18 9 18Z" fill="#6ABDB3"/>
<path d="M8.5 13C8.5 13.2761 8.72386 13.5 9 13.5C9.27614 13.5 9.5 13.2761 9.5 13L8.5 13ZM9.35355 4.64645C9.15829 4.45118 8.84171 4.45118 8.64645 4.64645L5.46447 7.82843C5.2692 8.02369 5.2692 8.34027 5.46447 8.53553C5.65973 8.7308 5.97631 8.7308 6.17157 8.53553L9 5.70711L11.8284 8.53553C12.0237 8.7308 12.3403 8.7308 12.5355 8.53553C12.7308 8.34027 12.7308 8.02369 12.5355 7.82843L9.35355 4.64645ZM9.5 13L9.5 5L8.5 5L8.5 13L9.5 13Z" fill="white"/>
</g>
<defs>
<clipPath id="clip0_164_5214">
<rect width="18" height="18" rx="9" fill="white"/>
</clipPath>
</defs>
</svg>
