<svg width="32" height="28" viewBox="0 0 32 28" fill="none" xmlns="http://www.w3.org/2000/svg">
<path d="M18.0104 18.9602C18.2057 19.1554 18.2057 19.472 18.0104 19.6673C17.8152 19.8625 17.4986 19.8625 17.3033 19.6673L18.0104 18.9602ZM12 13.6569L11.6465 14.0104L11.2929 13.6569L11.6465 13.3033L12 13.6569ZM17.3033 7.64646C17.4986 7.4512 17.8152 7.4512 18.0104 7.64646C18.2057 7.84172 18.2057 8.1583 18.0104 8.35357L17.3033 7.64646ZM17.3033 19.6673L11.6465 14.0104L12.3536 13.3033L18.0104 18.9602L17.3033 19.6673ZM11.6465 13.3033L17.3033 7.64646L18.0104 8.35357L12.3536 14.0104L11.6465 13.3033Z" fill="white"/>
</svg>
