<svg width="18" height="18" viewBox="0 0 18 18" fill="none" xmlns="http://www.w3.org/2000/svg">
<path d="M17.7285 11.1772C16.5265 15.9986 11.6432 18.9329 6.82122 17.7305C2.0012 16.5285 -0.933048 11.6449 0.269564 6.82379C1.47105 2.0018 6.35435 -0.932729 11.1749 0.269321C15.9966 1.47137 18.9306 6.35551 17.7285 11.1772Z" fill="url(#paint0_linear_164_5206)"/>
<path d="M12.9657 7.71791C13.1448 6.52036 12.233 5.87658 10.9862 5.44712L11.3907 3.82488L10.4032 3.57879L10.0095 5.15828C9.74987 5.09359 9.48325 5.03256 9.21832 4.97209L9.61487 3.3822L8.62798 3.13611L8.22326 4.75778C8.00839 4.70884 7.79745 4.66047 7.59271 4.60956L7.59383 4.6045L6.23203 4.26447L5.96935 5.31915C5.96935 5.31915 6.702 5.48705 6.68653 5.49746C7.08646 5.5973 7.15874 5.86196 7.14665 6.07177L6.68597 7.91984C6.71353 7.92687 6.74925 7.937 6.78862 7.95275C6.75572 7.94459 6.72056 7.93559 6.68428 7.92687L6.03853 10.5158C5.9896 10.6373 5.86557 10.8195 5.58601 10.7503C5.59585 10.7647 4.86827 10.5712 4.86827 10.5712L4.37805 11.7015L5.66307 12.0218C5.90213 12.0817 6.13641 12.1445 6.36703 12.2035L5.95838 13.8443L6.94471 14.0904L7.34943 12.467C7.61886 12.5402 7.88042 12.6077 8.13636 12.6712L7.73305 14.287L8.72051 14.5331L9.12916 12.8954C10.813 13.214 12.0792 13.0855 12.6121 11.5626C13.0416 10.3363 12.5908 9.62898 11.7048 9.16774C12.35 9.01896 12.836 8.59455 12.9657 7.71791ZM10.7095 10.8817C10.4043 12.1079 8.3397 11.445 7.67033 11.2788L8.21258 9.10502C8.88194 9.27208 11.0284 9.60282 10.7095 10.8817ZM11.0149 7.70019C10.7365 8.81561 9.01807 8.2489 8.46064 8.10996L8.95226 6.13842C9.50969 6.27736 11.3049 6.53667 11.0149 7.70019Z" fill="white"/>
<defs>
<linearGradient id="paint0_linear_164_5206" x1="0" y1="0" x2="0" y2="18" gradientUnits="userSpaceOnUse">
<stop stop-color="#F9AA4B"/>
<stop offset="1" stop-color="#F7931A"/>
</linearGradient>
</defs>
</svg>
