<svg width="33" height="32" viewBox="0 0 33 32" fill="none" xmlns="http://www.w3.org/2000/svg">
<path d="M22.2109 8.00154C21.942 8.00412 21.6793 8.09727 21.4737 8.30274L14.3714 15.4047C14.221 15.5476 14.1713 15.6754 14.0958 15.8534C14.0176 16.0374 13.946 16.2586 13.8843 16.5136C13.7608 17.0237 13.6864 17.651 13.7946 18.2763C13.821 18.4435 13.9613 18.5864 14.1278 18.616C14.753 18.7242 15.3804 18.6498 15.8905 18.5263C16.1455 18.4645 16.3732 18.3865 16.5572 18.3084C16.7352 18.2328 16.863 18.1896 17.0059 18.0392C17.0108 18.0341 17.0139 18.0315 17.0188 18.0265L24.1083 10.9374C24.5782 10.4675 24.4684 9.70151 23.9993 9.23231C23.7258 8.95887 23.4522 8.68526 23.1788 8.41185C22.9443 8.17733 22.6345 8.02939 22.3263 8.00163C22.2878 7.99819 22.2493 8.0012 22.211 8.00163L22.2109 8.00154ZM22.2109 8.82199C22.2335 8.82071 22.2571 8.81899 22.2814 8.82199C22.3789 8.83416 22.4888 8.88195 22.5955 8.98869C22.872 9.26471 23.1398 9.53944 23.416 9.8156C23.6296 10.0292 23.6154 10.2635 23.525 10.354L22.9737 10.9052L21.4994 9.43097L22.0508 8.87979C22.0847 8.84588 22.143 8.82599 22.211 8.82213L22.2109 8.82199ZM20.9225 10.0142L22.3904 11.482L16.4229 17.4495C16.4136 17.4515 16.3379 17.5093 16.2371 17.5521C16.1026 17.6092 15.9128 17.6733 15.6986 17.7251C15.3642 17.8061 14.9712 17.8346 14.5897 17.8148C14.5708 17.4352 14.5989 17.0384 14.6794 16.7059C14.7312 16.4917 14.7955 16.3084 14.8526 16.1739C14.8953 16.073 14.9537 15.9926 14.9552 15.9816L20.9225 10.0142ZM9.84611 10.8732C8.83045 10.873 8 11.7035 8 12.719V22.154C8 23.1697 8.83049 24 9.84611 24H19.2815C20.2971 24 21.1276 23.1697 21.1276 22.154V15.7956C21.1306 15.5789 20.9341 15.3795 20.7173 15.3795C20.5006 15.3795 20.3041 15.5789 20.3071 15.7956V22.154C20.3071 22.7292 19.8568 23.1795 19.2815 23.1795H9.84611C9.2709 23.1795 8.82045 22.7292 8.82045 22.154V12.719C8.82045 12.1438 9.27076 11.6935 9.84611 11.6935H17.0254C17.2421 11.6965 17.4415 11.5001 17.4415 11.2833C17.4415 11.0665 17.2421 10.8701 17.0254 10.8731L9.84611 10.8732Z" fill="white"/>
</svg>
