<svg width="34" height="34" viewBox="0 0 34 34" fill="none" xmlns="http://www.w3.org/2000/svg">
<mask id="path-1-outside-1_8_7865" maskUnits="userSpaceOnUse" x="7" y="7" width="16" height="16" fill="black">
<rect fill="white" x="7" y="7" width="16" height="16"/>
<path d="M15.3215 9.15329C16.5415 9.15217 17.7344 9.51252 18.7492 10.1887C19.7641 10.865 20.5555 11.8267 21.0231 12.9522C21.4907 14.0777 21.6136 15.3165 21.3763 16.5119C21.139 17.7072 20.5521 18.8054 19.6899 19.6675C18.8276 20.5296 17.7288 21.1168 16.5323 21.355C15.3359 21.5931 14.0957 21.4714 12.9685 21.0054C11.8413 20.5393 10.8778 19.7497 10.1999 18.7365C9.52201 17.7234 9.16018 16.5321 9.16018 15.3135C9.16758 13.683 9.81891 12.1212 10.9726 10.9677C12.1263 9.81421 13.6892 9.16216 15.3215 9.15329ZM15.3215 8C13.8735 8 12.4579 8.42893 11.2539 9.23255C10.0499 10.0362 9.11147 11.1784 8.55732 12.5148C8.00317 13.8511 7.85818 15.3216 8.14068 16.7403C8.42319 18.159 9.12049 19.4621 10.1444 20.485C11.1684 21.5078 12.4729 22.2043 13.8932 22.4865C15.3134 22.7687 16.7855 22.6239 18.1233 22.0703C19.4612 21.5168 20.6046 20.5794 21.4091 19.3767C22.2136 18.174 22.643 16.76 22.643 15.3135C22.643 13.3739 21.8717 11.5136 20.4986 10.1421C19.1256 8.77053 17.2633 8 15.3215 8Z"/>
</mask>
<path d="M15.3215 9.15329C16.5415 9.15217 17.7344 9.51252 18.7492 10.1887C19.7641 10.865 20.5555 11.8267 21.0231 12.9522C21.4907 14.0777 21.6136 15.3165 21.3763 16.5119C21.139 17.7072 20.5521 18.8054 19.6899 19.6675C18.8276 20.5296 17.7288 21.1168 16.5323 21.355C15.3359 21.5931 14.0957 21.4714 12.9685 21.0054C11.8413 20.5393 10.8778 19.7497 10.1999 18.7365C9.52201 17.7234 9.16018 16.5321 9.16018 15.3135C9.16758 13.683 9.81891 12.1212 10.9726 10.9677C12.1263 9.81421 13.6892 9.16216 15.3215 9.15329ZM15.3215 8C13.8735 8 12.4579 8.42893 11.2539 9.23255C10.0499 10.0362 9.11147 11.1784 8.55732 12.5148C8.00317 13.8511 7.85818 15.3216 8.14068 16.7403C8.42319 18.159 9.12049 19.4621 10.1444 20.485C11.1684 21.5078 12.4729 22.2043 13.8932 22.4865C15.3134 22.7687 16.7855 22.6239 18.1233 22.0703C19.4612 21.5168 20.6046 20.5794 21.4091 19.3767C22.2136 18.174 22.643 16.76 22.643 15.3135C22.643 13.3739 21.8717 11.5136 20.4986 10.1421C19.1256 8.77053 17.2633 8 15.3215 8Z" fill="white"/>
<path d="M9.16018 15.3135L8.86018 15.3122V15.3135L9.16018 15.3135ZM15.3215 8V8.3V8ZM22.643 15.3135H22.943H22.643ZM15.3218 9.45329C16.4825 9.45223 17.6174 9.79507 18.5829 10.4384L18.9156 9.93908C17.8513 9.22997 16.6005 8.85212 15.3213 8.85329L15.3218 9.45329ZM18.5829 10.4384C19.5484 11.0817 20.3012 11.9966 20.746 13.0673L21.3001 12.8371C20.8097 11.6567 19.9798 10.6482 18.9156 9.93908L18.5829 10.4384ZM20.746 13.0673C21.1909 14.138 21.3078 15.3164 21.0821 16.4534L21.6706 16.5703C21.9195 15.3167 21.7905 14.0175 21.3001 12.8371L20.746 13.0673ZM21.0821 16.4534C20.8563 17.5905 20.298 18.6352 19.4777 19.4553L19.902 19.8796C20.8062 18.9756 21.4217 17.8239 21.6706 16.5703L21.0821 16.4534ZM19.4777 19.4553C18.6575 20.2754 17.6121 20.8342 16.4738 21.0607L16.5909 21.6492C17.8455 21.3995 18.9978 20.7837 19.902 19.8796L19.4777 19.4553ZM16.4738 21.0607C15.3355 21.2873 14.1555 21.1716 13.0831 20.7281L12.8538 21.2826C14.0358 21.7713 15.3363 21.8989 16.5909 21.6492L16.4738 21.0607ZM13.0831 20.7281C12.0107 20.2847 11.0941 19.5335 10.4492 18.5697L9.95056 18.9034C10.6615 19.9659 11.6718 20.7939 12.8538 21.2826L13.0831 20.7281ZM10.4492 18.5697C9.80437 17.6059 9.46018 16.4727 9.46018 15.3135L8.86018 15.3135C8.86018 16.5916 9.23966 17.8409 9.95056 18.9034L10.4492 18.5697ZM9.46018 15.3149C9.46722 13.7635 10.0869 12.2775 11.1847 11.1799L10.7605 10.7556C9.5509 11.965 8.86794 13.6025 8.86019 15.3122L9.46018 15.3149ZM11.1847 11.1799C12.2826 10.0822 13.7698 9.46173 15.3232 9.45328L15.3199 8.85329C13.6086 8.8626 11.9701 9.54618 10.7605 10.7556L11.1847 11.1799ZM15.3215 7.7C13.8142 7.7 12.3407 8.14648 11.0874 8.98302L11.4204 9.48207C12.5751 8.71138 13.9327 8.3 15.3215 8.3V7.7ZM11.0874 8.98302C9.83401 9.81957 8.8571 11.0086 8.2802 12.3998L8.83444 12.6297C9.36584 11.3482 10.2658 10.2528 11.4204 9.48207L11.0874 8.98302ZM8.2802 12.3998C7.70331 13.7911 7.55236 15.322 7.84646 16.7989L8.43491 16.6817C8.16401 15.3213 8.30304 13.9112 8.83444 12.6297L8.2802 12.3998ZM7.84646 16.7989C8.14056 18.2758 8.8665 19.6325 9.93241 20.6972L10.3564 20.2727C9.37449 19.2918 8.70581 18.0421 8.43491 16.6817L7.84646 16.7989ZM9.93241 20.6972C10.9983 21.7619 12.3563 22.487 13.8347 22.7808L13.9516 22.1923C12.5895 21.9216 11.3384 21.2536 10.3564 20.2727L9.93241 20.6972ZM13.8347 22.7808C15.3131 23.0745 16.8454 22.9237 18.238 22.3475L18.0087 21.7931C16.7256 22.324 15.3137 22.4629 13.9516 22.1923L13.8347 22.7808ZM18.238 22.3475C19.6307 21.7713 20.821 20.7955 21.6585 19.5435L21.1598 19.2099C20.3883 20.3633 19.2917 21.2622 18.0087 21.7931L18.238 22.3475ZM21.6585 19.5435C22.496 18.2914 22.943 16.8194 22.943 15.3135H22.343C22.343 16.7006 21.9313 18.0565 21.1598 19.2099L21.6585 19.5435ZM22.943 15.3135C22.943 13.2942 22.14 11.3576 20.7106 9.92983L20.2866 10.3543C21.6034 11.6696 22.343 13.4535 22.343 15.3135H22.943ZM20.7106 9.92983C19.2813 8.50206 17.3428 7.7 15.3215 7.7V8.3C17.1839 8.3 18.9698 9.039 20.2866 10.3543L20.7106 9.92983Z" fill="white" mask="url(#path-1-outside-1_8_7865)"/>
<path d="M25.9427 24.9348L25.9427 24.9348L21.792 20.7604L21.6863 20.6542L21.58 20.7597L20.7802 21.5529L20.6736 21.6587L20.7795 21.7652L24.9302 25.9395C24.9963 26.0059 25.0747 26.0587 25.1612 26.0948C25.2476 26.131 25.3403 26.1497 25.434 26.15C25.5276 26.1504 25.6205 26.1323 25.7071 26.0968C25.7938 26.0613 25.8727 26.009 25.9392 25.9431C26.0057 25.8771 26.0585 25.7987 26.0947 25.7124C26.1309 25.626 26.1496 25.5333 26.15 25.4397C26.1503 25.346 26.1322 25.2533 26.0966 25.1666C26.061 25.08 26.0088 25.0012 25.9427 24.9348Z" fill="white" stroke="white" stroke-width="0.3"/>
</svg>
