<svg width="32" height="32" viewBox="0 0 32 32" fill="none" xmlns="http://www.w3.org/2000/svg">
<path d="M13.3088 8.04274C12.9865 8.13043 12.7142 8.33053 12.5234 8.62787C12.3452 8.90017 12.3073 9.12236 12.3073 9.86717V10.4963H9.82875L9.72227 10.6028C9.62842 10.6966 9.61578 10.728 9.61578 10.8781C9.61578 11.2004 9.74106 11.2787 10.2541 11.2787H10.6171L10.6232 17.1215L10.6326 22.9673L10.7045 23.1394C10.8485 23.493 11.1428 23.7873 11.4838 23.9279L11.6654 23.9999L16.0004 24H20.3348L20.5068 23.9311C20.8543 23.7871 21.1547 23.4867 21.2986 23.1393L21.3675 22.9672L21.3768 17.1214L21.3829 11.2785H21.7459C22.2592 11.2785 22.3842 11.2003 22.3842 10.878C22.3842 10.7278 22.3717 10.6965 22.2778 10.6026L22.1718 10.4963H19.6996L19.6871 9.76718C19.6746 9.11007 19.6683 9.02546 19.6058 8.86908C19.468 8.52491 19.1645 8.22118 18.8172 8.07724L18.6452 8.00834L16.0633 8.00219C13.8629 7.9957 13.4561 8.00208 13.3089 8.04273L13.3088 8.04274ZM18.5978 8.84391C18.6822 8.89094 18.7668 8.97533 18.8105 9.05049C18.8763 9.16939 18.8794 9.21016 18.8794 9.83595V10.4962H13.096L13.0835 9.82968C13.071 9.17872 13.071 9.16312 13.1429 9.03475C13.218 8.90025 13.3369 8.81564 13.5123 8.77191C13.5655 8.75938 14.6984 8.75004 16.0314 8.75311L18.4567 8.75926L18.5978 8.84391ZM20.5442 17.0588L20.5535 22.8422L20.4846 22.9674C20.444 23.0457 20.3657 23.1238 20.2812 23.1708L20.1467 23.2491H11.791L11.6502 23.1708C11.5655 23.1238 11.4842 23.0425 11.4405 22.9674L11.3685 22.8422V11.2786H20.5379L20.5442 17.0588Z" fill="white"/>
<path d="M14.3887 13.3347C14.2635 13.3691 14.1539 13.4723 14.1228 13.5944C14.1009 13.6757 14.0946 14.9182 14.0979 17.3968L14.1072 21.0802L14.2229 21.1866C14.323 21.2743 14.3638 21.2931 14.4858 21.2931C14.564 21.2931 14.6704 21.2682 14.7206 21.2399C14.9145 21.1242 14.9052 21.3431 14.9052 17.3219C14.9052 13.3662 14.9113 13.5038 14.7425 13.3974C14.658 13.3409 14.4795 13.3097 14.3887 13.3346L14.3887 13.3347Z" fill="white"/>
<path d="M17.2835 13.3533C17.224 13.3752 17.1457 13.4379 17.105 13.4973L17.0331 13.6038V17.2933C17.0331 21.3647 17.0237 21.1425 17.2239 21.2457C17.3554 21.3146 17.5714 21.3052 17.6746 21.2239C17.8561 21.083 17.8466 21.2615 17.8466 17.3277C17.8466 14.94 17.8341 13.6629 17.8153 13.588C17.7591 13.3846 17.5087 13.2751 17.2835 13.3532L17.2835 13.3533Z" fill="white"/>
</svg>
