<svg width="18" height="15" viewBox="0 0 18 15" fill="none" xmlns="http://www.w3.org/2000/svg">
<path d="M15.3622 6.75018L15.9755 5.92357L15.3622 6.75018ZM15.3622 6.75018C14.9788 3.15741 11.8846 0.35 8.13043 0.35C4.1185 0.35 0.85 3.55433 0.85 7.5C0.85 11.4457 4.1187 14.65 8.13043 14.65C10.0482 14.65 11.8592 13.9238 13.2283 12.6046L13.2284 12.6045C13.4857 12.3563 13.4898 11.9491 13.2373 11.6967C12.9859 11.4448 12.5751 11.4408 12.3196 11.6879C11.1956 12.7715 9.70821 13.3683 8.13036 13.3683C4.83026 13.3683 2.14994 10.7331 2.14994 7.50003C2.14994 4.26692 4.83007 1.63175 8.13036 1.63175C11.1656 1.63175 13.6701 3.863 14.0527 6.7368L13.4456 6.00243C13.4456 6.00242 13.4456 6.0024 13.4456 6.00239L13.4455 6.0023L13.3299 6.09787L15.3622 6.75018ZM16.8817 5.78304C16.5928 5.57614 16.1869 5.63803 15.9756 5.92341L12.5541 6.71686L12.4384 6.81242L12.4385 6.8125C12.4385 6.81255 12.4386 6.8126 12.4386 6.81265L14.2724 9.03145L14.2726 9.03164C14.3967 9.18135 14.5816 9.26762 14.7759 9.26762H14.7892V9.26767L14.7929 9.26758C14.9942 9.26251 15.1812 9.16522 15.3007 9.00543L15.301 9.00498L17.0247 6.68104L17.0249 6.68073C17.2371 6.39304 17.1728 5.9913 16.8817 5.78306L16.8817 5.78304Z" fill="white" stroke="white" stroke-width="0.3"/>
</svg>
